<svg width="447" height="452" viewBox="0 0 447 452" fill="none" xmlns="http://www.w3.org/2000/svg">
<path d="M167.728 17.4668C168.256 13.6775 162.892 10.5586 158.869 10.2335C156.949 10.0709 154.958 10.3656 153.139 9.7357C149.208 8.36421 147.633 3.27448 143.783 1.60837C140.907 0.399435 137.606 1.47631 134.822 2.87827C132.039 4.28023 129.275 6.04793 126.167 6.25111C123.464 6.42381 120.518 5.41806 118.151 6.73875C116.383 7.75466 115.459 9.7865 113.833 10.9548C112.142 12.0007 110.183 12.5336 108.195 12.4888C106.212 12.4351 104.238 12.7556 102.374 13.4336C100.576 14.2565 99.0924 16.1664 99.4683 18.1068L167.728 17.4668Z" fill="#F5F5F5"/>
<path d="M437.463 241.69C438.337 235.381 429.428 230.19 422.733 229.651C419.543 229.387 416.231 229.875 413.203 228.818C406.661 226.542 404.06 218.08 397.65 215.377C392.875 213.346 387.369 215.164 382.736 217.491C378.104 219.817 373.532 222.753 368.351 223.088C363.85 223.373 358.964 221.707 355.022 223.911C352.086 225.547 350.552 228.93 347.85 230.921C345.147 232.912 341.754 233.288 338.463 233.471C335.171 233.654 331.778 233.674 328.791 235.046C325.804 236.417 323.325 239.577 323.945 242.807L437.463 241.69Z" fill="#EBEBEB"/>
<path d="M98.7572 87.7173C99.4175 82.8917 92.6007 78.9195 87.4805 78.5029C85.0423 78.3099 82.5127 78.6858 80.1964 77.8731C75.1879 76.1257 73.1866 69.6543 68.2899 67.592C64.6427 66.0478 60.4267 67.4295 56.8812 69.2073C53.3356 70.9852 49.8409 73.271 45.8788 73.4945C42.4348 73.7078 38.6963 72.4786 35.7196 74.1142C33.4745 75.3739 32.3062 77.9544 30.2337 79.4782C28.1612 81.0021 25.5706 81.2967 23.0512 81.4288C20.5317 81.5609 17.9716 81.5913 15.6553 82.6377C13.339 83.6841 11.4799 86.102 11.9472 88.5707L98.7572 87.7173Z" fill="#F5F5F5"/>
<path d="M368.452 350.687L345.848 448.824L355.408 448.794L378.053 351.611L368.452 350.687Z" fill="#E0E0E0"/>
<path d="M409.678 350.687L432.363 448.824H441.446L419.502 350.687H409.678Z" fill="#E0E0E0"/>
<path d="M353.193 276.982L366.065 344.551H380.684L366.939 276.982H353.193Z" fill="#E0E0E0"/>
<path d="M129.052 350.687L110.613 448.824H120L139.262 350.687H129.052Z" fill="#E0E0E0"/>
<path d="M167.819 350.687L188.889 448.286H198.164L177.816 350.687H167.819Z" fill="#E0E0E0"/>
<path d="M113.793 276.982L126.664 344.551H141.283L127.538 276.982H113.793Z" fill="#E0E0E0"/>
<path d="M84.8391 270.846L87.4704 283.129H381.121L377.697 270.846H84.8391Z" fill="#EBEBEB"/>
<path d="M90.447 294.7L93.5557 306.983H385.215L382.563 294.7H90.447Z" fill="#EBEBEB"/>
<path d="M96.2479 319.397L99.1331 331.679H389.898L387.145 319.397H96.2479Z" fill="#EBEBEB"/>
<path d="M432.018 344.551H118.476V356.833H432.018V344.551Z" fill="#EBEBEB"/>
<path d="M304.968 192.428C302.545 192.429 300.165 191.792 298.065 190.583C295.966 189.373 294.222 187.633 293.007 185.537C291.793 183.441 291.151 181.062 291.146 178.639C291.141 176.216 291.774 173.835 292.98 171.734L332.601 102.651C333.796 100.538 335.533 98.7804 337.633 97.5608C339.732 96.3412 342.119 95.7033 344.548 95.7126C346.969 95.6982 349.35 96.3264 351.449 97.5328C353.548 98.7393 355.289 100.481 356.495 102.58L396.522 171.429C397.739 173.526 398.383 175.907 398.389 178.332C398.395 180.757 397.764 183.141 396.557 185.245C395.351 187.349 393.613 189.099 391.516 190.318C389.42 191.538 387.04 192.185 384.615 192.194L304.978 192.438L304.968 192.428ZM344.588 99.8271C342.884 99.8219 341.209 100.271 339.736 101.128C338.263 101.985 337.045 103.219 336.207 104.704L296.586 173.786C295.74 175.259 295.297 176.929 295.3 178.628C295.302 180.327 295.752 181.995 296.603 183.466C297.454 184.936 298.677 186.157 300.148 187.006C301.62 187.855 303.289 188.303 304.988 188.303L384.626 188.059C386.321 188.049 387.984 187.594 389.448 186.741C390.913 185.887 392.128 184.664 392.972 183.193C393.816 181.723 394.26 180.057 394.259 178.362C394.258 176.666 393.812 175.001 392.966 173.532L352.939 104.693C352.102 103.214 350.886 101.984 349.417 101.129C347.948 100.274 346.278 99.8245 344.578 99.8271H344.588Z" fill="#EBEBEB"/>
<path d="M336.806 129.715L338.665 155.489C338.736 156.506 339.178 157.462 339.906 158.175C340.634 158.888 341.599 159.31 342.617 159.36C343.689 159.415 344.74 159.057 345.555 158.359C346.37 157.661 346.885 156.678 346.996 155.611L349.637 129.674C349.683 129.211 349.631 128.744 349.483 128.303C349.335 127.861 349.095 127.456 348.779 127.115C348.463 126.773 348.079 126.502 347.651 126.32C347.222 126.138 346.76 126.048 346.295 126.058L340.006 126.2C339.562 126.21 339.124 126.31 338.72 126.494C338.315 126.678 337.952 126.943 337.653 127.272C337.354 127.6 337.124 127.986 336.979 128.406C336.833 128.826 336.775 129.272 336.806 129.715Z" fill="#EBEBEB"/>
<path d="M349.577 173.806C349.194 174.989 348.469 176.032 347.494 176.803C346.52 177.574 345.338 178.039 344.099 178.139C342.86 178.239 341.619 177.969 340.533 177.364C339.447 176.759 338.565 175.846 337.998 174.74C337.431 173.634 337.204 172.385 337.346 171.15C337.489 169.915 337.994 168.75 338.798 167.802C339.602 166.854 340.669 166.166 341.864 165.824C343.06 165.483 344.329 165.503 345.513 165.882C346.301 166.135 347.031 166.54 347.662 167.075C348.293 167.611 348.812 168.265 349.189 169.001C349.567 169.737 349.795 170.54 349.862 171.365C349.928 172.19 349.831 173.019 349.577 173.806Z" fill="#EBEBEB"/>
<path d="M446.617 448.703C446.617 448.845 346.63 448.967 223.319 448.967C100.007 448.967 0 448.845 0 448.703C0 448.56 99.9661 448.438 223.319 448.438C346.671 448.438 446.617 448.55 446.617 448.703Z" fill="#263238"/>
<path d="M291.903 339.715L189.296 339.644C176.962 339.644 166.945 329.13 166.945 316.167V45.933C166.945 32.9699 176.962 22.4552 189.296 22.4653L291.852 22.5263C304.196 22.5263 314.202 33.041 314.202 46.0041L314.152 316.238C314.253 329.211 304.246 339.715 291.903 339.715Z" fill="#263238"/>
<path d="M291.873 32.0962H271.981C270.639 32.162 269.377 32.757 268.473 33.751C267.568 34.7449 267.095 36.0568 267.155 37.3993V41.1886C267.216 42.5328 266.741 43.8461 265.834 44.8404C264.928 45.8346 263.664 46.4285 262.32 46.4917H223.562C222.218 46.4259 220.955 45.8295 220.051 44.8333C219.146 43.8371 218.673 42.5227 218.737 41.1785V37.3993C218.798 36.0568 218.324 34.7449 217.419 33.751C216.515 32.757 215.253 32.162 213.911 32.0962H189.529C180.884 32.0962 173.874 39.4616 173.874 48.5439V312.296C173.874 321.368 180.874 328.733 189.509 328.744L291.873 328.804C300.518 328.804 307.528 321.449 307.528 312.367L307.508 48.5743C307.508 39.4311 300.518 32.0962 291.873 32.0962Z" fill="white"/>
<path d="M201.771 303.843V310.295C201.77 310.421 201.736 310.545 201.671 310.654C201.607 310.762 201.514 310.852 201.403 310.913C201.293 310.974 201.168 311.005 201.041 311.001C200.915 310.998 200.791 310.961 200.684 310.894L195.604 307.663C195.504 307.599 195.421 307.51 195.363 307.406C195.306 307.301 195.276 307.183 195.276 307.064C195.276 306.944 195.306 306.827 195.363 306.722C195.421 306.617 195.504 306.529 195.604 306.465L200.684 303.234C200.792 303.167 200.916 303.13 201.044 303.127C201.171 303.124 201.297 303.155 201.408 303.217C201.519 303.28 201.611 303.371 201.675 303.481C201.739 303.591 201.772 303.716 201.771 303.843Z" fill="#E0E0E0"/>
<path d="M243.484 307.003C243.482 307.882 243.22 308.742 242.73 309.472C242.239 310.203 241.544 310.771 240.731 311.107C239.917 311.442 239.023 311.528 238.16 311.356C237.298 311.183 236.506 310.758 235.885 310.136C235.264 309.513 234.841 308.72 234.67 307.857C234.499 306.994 234.588 306.1 234.925 305.288C235.262 304.475 235.832 303.781 236.564 303.292C237.295 302.804 238.155 302.543 239.035 302.543C240.216 302.546 241.348 303.017 242.182 303.853C243.016 304.689 243.484 305.822 243.484 307.003Z" fill="#E0E0E0"/>
<path d="M281.754 303.122H277.345C276.296 303.122 275.445 303.973 275.445 305.022V309.451C275.445 310.5 276.296 311.351 277.345 311.351H281.754C282.803 311.351 283.654 310.5 283.654 309.451V305.022C283.654 303.973 282.803 303.122 281.754 303.122Z" fill="#E0E0E0"/>
<path d="M290.155 160.488C296.708 133.361 280.029 106.057 252.901 99.5046C225.774 92.9517 198.47 109.631 191.917 136.759C185.365 163.886 202.044 191.19 229.171 197.742C256.299 204.295 283.602 187.616 290.155 160.488Z" fill="#F5F5F5"/>
<path d="M243.291 170.87C243.289 171.696 243.042 172.504 242.581 173.189C242.12 173.875 241.466 174.409 240.702 174.722C239.938 175.036 239.098 175.116 238.288 174.952C237.478 174.789 236.735 174.388 236.153 173.802C235.571 173.215 235.176 172.469 235.018 171.658C234.86 170.847 234.946 170.008 235.265 169.246C235.585 168.484 236.123 167.834 236.812 167.378C237.501 166.922 238.31 166.681 239.136 166.685C240.241 166.693 241.298 167.137 242.076 167.921C242.855 168.705 243.292 169.765 243.291 170.87Z" fill="#455A64"/>
<path d="M230.775 165.506C231.841 164.359 233.128 163.441 234.558 162.806C235.989 162.17 237.534 161.832 239.099 161.811C240.664 161.79 242.217 162.087 243.664 162.684C245.111 163.281 246.422 164.165 247.518 165.283C249.651 167.436 252.983 164.135 250.85 161.981C249.316 160.435 247.489 159.212 245.476 158.383C243.462 157.555 241.303 157.137 239.126 157.155C236.949 157.173 234.797 157.626 232.798 158.488C230.799 159.35 228.992 160.603 227.484 162.174C225.401 164.358 228.703 167.701 230.796 165.506H230.775Z" fill="#455A64"/>
<path d="M216.593 146.102C222.943 140.616 230.521 137.162 239.004 137.142C247.472 137.021 255.667 140.139 261.913 145.858C264.107 147.89 267.45 144.629 265.245 142.557C258.125 135.962 248.76 132.329 239.055 132.397C229.292 132.397 220.616 136.461 213.312 142.729C211.026 144.71 214.328 148.032 216.624 146.062L216.593 146.102Z" fill="#455A64"/>
<path d="M222.191 156.84C224.308 154.478 226.891 152.579 229.778 151.265C232.666 149.951 235.794 149.249 238.966 149.204C242.138 149.16 245.284 149.773 248.208 151.005C251.131 152.237 253.767 154.061 255.95 156.363C258.063 158.527 261.395 155.225 259.282 153.051C256.663 150.314 253.51 148.144 250.018 146.675C246.526 145.207 242.769 144.471 238.981 144.514C235.193 144.557 231.455 145.377 227.997 146.924C224.539 148.471 221.435 150.712 218.879 153.508C216.847 155.723 220.129 159.065 222.191 156.84Z" fill="#455A64"/>
<path d="M278.567 137.251C279.799 130.284 275.15 123.637 268.183 122.405C261.216 121.173 254.569 125.822 253.337 132.789C252.105 139.756 256.754 146.403 263.721 147.635C270.688 148.867 277.335 144.218 278.567 137.251Z" fill="#58F9C8"/>
<path d="M271.232 131.438L269.415 129.621L261.276 137.76L263.093 139.577L271.232 131.438Z" fill="white"/>
<path d="M263.097 129.611L261.28 131.428L269.419 139.567L271.236 137.75L263.097 129.611Z" fill="white"/>
<path d="M237.643 60.3082C238.279 59.9261 238.962 59.629 239.675 59.4243L240.091 57.3925L243.474 57.3315L243.962 59.3634C244.672 59.5434 245.355 59.8167 245.994 60.1761L247.69 59.0383L250.129 61.3952L249.062 63.1426C249.444 63.7783 249.741 64.4614 249.946 65.1744L251.978 65.5909L252.038 68.9841L250.007 69.4616C249.83 70.1714 249.56 70.8546 249.204 71.4934L250.322 73.2001L247.975 75.6383L246.227 74.6224C245.591 75.0007 244.908 75.2944 244.196 75.4961L243.779 77.5279L240.396 77.5889L239.908 75.5571C239.199 75.3751 238.516 75.1019 237.877 74.7443L236.16 75.8618L233.722 73.5151L234.788 71.7677C234.405 71.1325 234.108 70.4493 233.904 69.7359L231.873 69.3193L231.812 65.9363L233.843 65.4487C234.022 64.7395 234.292 64.0565 234.646 63.4169L233.528 61.7L235.885 59.2719L237.633 60.2879L237.643 60.3082ZM239.441 64.829C238.941 65.3465 238.606 66.0006 238.478 66.7086C238.35 67.4165 238.435 68.1466 238.722 68.8063C239.009 69.4661 239.485 70.0259 240.09 70.415C240.696 70.804 241.402 71.0049 242.122 70.9921C242.841 70.9793 243.541 70.7534 244.132 70.3431C244.722 69.9327 245.178 69.3563 245.442 68.6868C245.705 68.0173 245.764 67.2847 245.611 66.5817C245.458 65.8787 245.1 65.237 244.582 64.7376C243.888 64.0684 242.956 63.7021 241.992 63.7193C241.029 63.7364 240.111 64.1356 239.441 64.829Z" fill="#E0E0E0"/>
<path d="M194.68 67.8769C193.664 67.8769 192.252 67.8769 190.901 67.8769C189.285 67.8769 187.67 67.8769 186.542 67.8769C186.408 67.8769 186.278 67.8233 186.183 67.7281C186.088 67.6328 186.034 67.5036 186.034 67.3689C186.033 67.3027 186.045 67.2369 186.069 67.1753C186.094 67.1137 186.13 67.0576 186.177 67.0103C186.223 66.963 186.278 66.9254 186.339 66.8998C186.4 66.8741 186.466 66.8609 186.532 66.8609C187.66 66.8609 189.296 66.8609 190.921 66.8609C192.546 66.8609 194.152 66.9219 195.279 66.8609C195.345 66.8596 195.411 66.8715 195.473 66.8959C195.534 66.9203 195.591 66.9567 195.638 67.0031C195.685 67.0495 195.723 67.1048 195.748 67.1659C195.774 67.2269 195.787 67.2925 195.787 67.3587C195.789 67.4254 195.777 67.4918 195.752 67.5539C195.728 67.6161 195.692 67.6728 195.646 67.7209C195.599 67.769 195.544 67.8076 195.483 67.8343C195.422 67.8611 195.356 67.8755 195.289 67.8769H194.68Z" fill="#263238"/>
<path d="M189.631 71.2903C189.56 71.2889 189.49 71.2728 189.425 71.2431C189.36 71.2134 189.302 71.1707 189.255 71.1176L186.207 67.633C186.124 67.5371 186.079 67.4145 186.079 67.2876C186.079 67.1608 186.124 67.0382 186.207 66.9422L189.255 63.7726C189.299 63.7187 189.355 63.6745 189.417 63.6429C189.479 63.6113 189.547 63.5928 189.617 63.5888C189.687 63.5847 189.757 63.595 189.822 63.6192C189.888 63.6433 189.948 63.6808 189.998 63.7291C190.049 63.7775 190.089 63.8357 190.115 63.9002C190.142 63.9647 190.156 64.034 190.155 64.1039C190.153 64.1738 190.138 64.2427 190.109 64.3063C190.08 64.3699 190.038 64.4268 189.986 64.4735L187.294 67.3079L190.078 70.4471C190.143 70.5208 190.185 70.6116 190.199 70.7086C190.213 70.8056 190.199 70.9047 190.158 70.9938C190.117 71.083 190.051 71.1584 189.969 71.211C189.886 71.2636 189.79 71.2912 189.692 71.2903H189.631Z" fill="#263238"/>
<path d="M294.351 64.9203C295.221 64.9203 295.926 64.2153 295.926 63.3457C295.926 62.476 295.221 61.771 294.351 61.771C293.482 61.771 292.777 62.476 292.777 63.3457C292.777 64.2153 293.482 64.9203 294.351 64.9203Z" fill="#263238"/>
<path d="M295.926 68.3237C295.928 68.638 295.837 68.9458 295.663 69.208C295.49 69.4702 295.242 69.6749 294.952 69.7961C294.662 69.9173 294.343 69.9495 294.035 69.8887C293.726 69.8279 293.443 69.6767 293.221 69.4545C292.998 69.2322 292.847 68.9489 292.786 68.6406C292.726 68.3322 292.758 68.0127 292.879 67.7227C293 67.4327 293.205 67.1853 293.467 67.0119C293.729 66.8385 294.037 66.747 294.351 66.7491C294.769 66.7491 295.17 66.915 295.465 67.2103C295.76 67.5056 295.926 67.9061 295.926 68.3237Z" fill="#263238"/>
<path d="M294.351 74.8764C295.221 74.8764 295.926 74.1714 295.926 73.3017C295.926 72.432 295.221 71.7271 294.351 71.7271C293.482 71.7271 292.777 72.432 292.777 73.3017C292.777 74.1714 293.482 74.8764 294.351 74.8764Z" fill="#263238"/>
<path d="M206.81 218.12C204.415 218.382 202.004 218.47 199.597 218.384C197.193 218.47 194.786 218.381 192.394 218.12C194.786 217.859 197.193 217.771 199.597 217.856C202.004 217.771 204.415 217.859 206.81 218.12Z" fill="#263238"/>
<path d="M232.685 234.985C232.685 235.127 223.826 235.249 212.905 235.249C201.984 235.249 193.126 235.127 193.126 234.985C193.126 234.843 201.974 234.721 212.905 234.721C223.837 234.721 232.685 234.843 232.685 234.985Z" fill="#263238"/>
<path d="M232.685 251.757C232.685 251.9 223.826 252.021 212.905 252.021C201.984 252.021 193.126 251.9 193.126 251.757C193.126 251.615 201.974 251.493 212.905 251.493C223.837 251.493 232.685 251.595 232.685 251.757Z" fill="#263238"/>
<path d="M284.975 228.655H270.508C267.012 228.655 264.179 231.487 264.179 234.979C264.179 238.472 267.012 241.303 270.508 241.303H284.975C288.47 241.303 291.304 238.472 291.304 234.979C291.304 231.487 288.47 228.655 284.975 228.655Z" fill="#EBEBEB"/>
<path d="M275.73 234.985C275.73 236.034 275.419 237.059 274.836 237.931C274.253 238.803 273.425 239.483 272.456 239.884C271.487 240.286 270.421 240.391 269.392 240.186C268.363 239.981 267.418 239.476 266.677 238.735C265.935 237.993 265.43 237.048 265.225 236.019C265.021 234.991 265.126 233.924 265.527 232.955C265.929 231.986 266.608 231.158 267.48 230.575C268.352 229.993 269.378 229.682 270.427 229.682C271.123 229.682 271.813 229.819 272.456 230.085C273.099 230.352 273.684 230.742 274.176 231.235C274.669 231.727 275.059 232.312 275.326 232.955C275.593 233.599 275.73 234.288 275.73 234.985Z" fill="#E0E0E0"/>
<path d="M284.985 258.067H270.508C268.829 258.067 267.219 257.4 266.033 256.213C264.846 255.026 264.179 253.416 264.179 251.737C264.179 250.059 264.846 248.449 266.033 247.262C267.219 246.075 268.829 245.408 270.508 245.408H284.985C286.663 245.408 288.273 246.075 289.46 247.262C290.647 248.449 291.314 250.059 291.314 251.737C291.314 253.416 290.647 255.026 289.46 256.213C288.273 257.4 286.663 258.067 284.985 258.067Z" fill="#EBEBEB"/>
<path d="M270.427 257.04C273.355 257.04 275.73 254.666 275.73 251.737C275.73 248.808 273.355 246.434 270.427 246.434C267.498 246.434 265.124 248.808 265.124 251.737C265.124 254.666 267.498 257.04 270.427 257.04Z" fill="#E0E0E0"/>
<path d="M232.685 268.602C232.685 268.754 223.826 268.866 212.905 268.866C201.984 268.866 193.126 268.754 193.126 268.602C193.126 268.449 201.974 268.337 212.905 268.337C223.837 268.337 232.685 268.459 232.685 268.602Z" fill="#263238"/>
<path d="M284.985 276.799H270.508C269.677 276.801 268.854 276.638 268.087 276.321C267.319 276.004 266.621 275.539 266.033 274.952C265.445 274.365 264.979 273.668 264.661 272.901C264.343 272.134 264.179 271.311 264.179 270.481C264.179 268.802 264.846 267.192 266.033 266.005C267.219 264.818 268.829 264.151 270.508 264.151H284.985C286.663 264.151 288.273 264.818 289.46 266.005C290.647 267.192 291.314 268.802 291.314 270.481C291.314 271.311 291.15 272.134 290.832 272.901C290.514 273.668 290.047 274.365 289.459 274.952C288.872 275.539 288.174 276.004 287.406 276.321C286.638 276.638 285.815 276.801 284.985 276.799Z" fill="#EBEBEB"/>
<path d="M270.427 275.784C273.355 275.784 275.73 273.41 275.73 270.481C275.73 267.552 273.355 265.178 270.427 265.178C267.498 265.178 265.124 267.552 265.124 270.481C265.124 273.41 267.498 275.784 270.427 275.784Z" fill="#E0E0E0"/>
<path d="M405.838 49.8516C407.296 40.8229 401.158 32.3222 392.13 30.8648C383.101 29.4073 374.6 35.545 373.143 44.5736C371.685 53.6022 377.823 62.1029 386.852 63.5604C395.88 65.0178 404.381 58.8802 405.838 49.8516Z" fill="#58F9C8"/>
<path d="M387.135 84.2427C387.043 84.2427 386.962 81.1949 386.962 77.4056C386.962 73.6162 387.043 70.5786 387.135 70.5786C387.311 72.8497 387.369 75.1285 387.308 77.4056C387.369 79.686 387.311 81.9682 387.135 84.2427Z" fill="#58F9C8"/>
<path d="M377.595 66.7282C377.677 66.7282 376.122 69.6337 374.121 73.098C372.12 76.5623 370.423 79.3459 370.342 79.2951C370.26 79.2443 371.815 76.3997 373.816 72.9253C375.817 69.4509 377.514 66.6774 377.595 66.7282Z" fill="#58F9C8"/>
<path d="M367.802 60.6328C366.593 61.8184 365.303 62.9182 363.942 63.9244C362.653 65.0253 361.296 66.0432 359.878 66.9721C361.087 65.7866 362.377 64.6867 363.738 63.6806C365.023 62.5742 366.38 61.5559 367.802 60.6328Z" fill="#58F9C8"/>
<path d="M403.654 77.5073C403.455 76.9636 403.309 76.4023 403.217 75.831C402.983 74.8151 402.638 73.3522 402.201 71.7674C401.764 70.1825 401.347 68.7806 401.032 67.7646C400.821 67.223 400.664 66.6614 400.565 66.0884C400.855 66.5938 401.09 67.1284 401.266 67.6834C401.642 68.6993 402.109 70.0911 402.536 71.6759C402.963 73.2607 403.257 74.7237 403.44 75.7396C403.574 76.3196 403.645 76.9121 403.654 77.5073Z" fill="#58F9C8"/>
<path d="M420.447 65.5904C418.742 64.3254 417.107 62.9689 415.55 61.5267C413.918 60.177 412.362 58.739 410.887 57.2192C412.591 58.4842 414.226 59.8407 415.784 61.2829C417.415 62.6326 418.972 64.0706 420.447 65.5904Z" fill="#58F9C8"/>
<path d="M426.877 49.2139C426.194 49.1719 425.515 49.0768 424.846 48.9294C423.616 48.7262 421.92 48.4621 420.04 48.2488C418.161 48.0354 416.444 47.9034 415.205 47.8221C414.524 47.8207 413.844 47.7629 413.173 47.6494C413.846 47.5578 414.527 47.534 415.205 47.5783C416.454 47.5783 418.181 47.69 420.071 47.9033C421.96 48.1167 423.667 48.4215 424.886 48.6856C425.565 48.8 426.231 48.9769 426.877 49.2139Z" fill="#58F9C8"/>
<path d="M426.898 33.1117C426.898 33.2133 423.342 34.1277 418.892 35.2452C414.443 36.3627 410.826 37.1246 410.765 37.0332C410.704 36.9418 414.331 36.0173 418.77 34.9099C423.21 33.8026 426.877 33.0203 426.898 33.1117Z" fill="#58F9C8"/>
<path d="M408.205 14.3579C408.276 14.3579 406.569 17.1415 404.375 20.4534C402.181 23.7653 400.311 26.427 400.25 26.366C400.189 26.3051 401.886 23.5824 404.08 20.2705C405.354 18.231 406.731 16.2576 408.205 14.3579Z" fill="#58F9C8"/>
<path d="M389.624 10.4365C389.677 11.1941 389.677 11.9546 389.624 12.7122C389.624 14.1141 389.624 16.0444 389.624 18.1778C389.624 20.3112 389.624 22.2415 389.685 23.6637C389.738 24.418 389.738 25.175 389.685 25.9292C389.54 25.1859 389.462 24.4311 389.451 23.6739C389.37 22.2719 389.299 20.3315 389.299 18.188C389.299 16.0444 389.36 14.1243 389.441 12.702C389.433 11.9429 389.494 11.1846 389.624 10.4365Z" fill="#58F9C8"/>
<path d="M375.564 27.9405C375.482 27.9913 373.735 25.289 371.673 21.906C369.61 18.523 367.985 15.7292 368.066 15.6784C368.147 15.6276 369.895 18.3401 371.967 21.7739C374.04 25.2077 375.696 27.8999 375.564 27.9405Z" fill="#58F9C8"/>
<path d="M367.162 35.0823C366.567 35.0581 365.978 34.9661 365.404 34.808C364.327 34.5743 362.854 34.2188 361.239 33.7921C359.624 33.3654 358.191 32.7762 357.175 32.4206C356.607 32.24 356.059 32.0018 355.54 31.7095C356.126 31.8162 356.701 31.9795 357.257 32.1971C358.273 32.5222 359.746 32.9895 361.32 33.4568C362.895 33.9242 364.368 34.3305 365.445 34.615C366.031 34.7162 366.606 34.8726 367.162 35.0823Z" fill="#58F9C8"/>
<path d="M363.505 47.8018C361.762 48.1503 359.996 48.3777 358.222 48.4824C356.46 48.7091 354.685 48.8244 352.909 48.8278C354.652 48.4777 356.417 48.2469 358.191 48.137C359.954 47.9162 361.728 47.8043 363.505 47.8018Z" fill="#58F9C8"/>
<path d="M352.208 342.925L367.02 448.448L370.88 448.57C368.422 412.729 365.801 376.176 352.208 342.925Z" fill="#455A64"/>
<path d="M393.362 337.978C383.01 349.285 378.845 364.92 376.224 380.047C372.506 401.493 372.16 426.83 373.288 448.571L378.693 448.693C376.551 411.193 381.528 373.626 393.362 337.978Z" fill="#455A64"/>
<path d="M354.93 405.354C353.742 400.122 352.38 394.808 349.394 390.349C345.33 384.334 338.798 380.535 332.184 377.568C325.57 374.602 318.632 372.245 312.658 368.141C319.322 379.062 334.439 381.967 342.12 392.187C345.95 397.267 347.545 403.647 349.038 409.834C352.319 423.325 354.331 434.998 357.602 448.439H361.991C360.547 433.943 358.189 419.552 354.93 405.354Z" fill="#455A64"/>
<path d="M382.644 448.571C382.644 448.571 386.353 406.664 389.106 398.964C391.859 391.263 417.866 370.01 417.622 371.016C417.379 372.022 398.107 395.276 395.354 400.081C392.6 404.887 387.887 448.571 387.887 448.571H382.644Z" fill="#455A64"/>
<path d="M259.698 404.744C260.725 405.155 261.659 405.769 262.443 406.549C263.227 407.329 263.845 408.26 264.26 409.285C265.089 411.343 265.436 413.564 265.276 415.777C265.062 420.044 262.939 424.483 260.562 428.039C256.793 425.154 255.625 419.78 255.198 417.006C254.527 412.638 255.97 404.328 259.719 404.744" fill="#58F9C8"/>
<path d="M265.144 434.754C264.823 433.558 264.824 432.299 265.147 431.104C265.469 429.908 266.103 428.819 266.982 427.948C267.873 427.092 268.927 426.423 270.08 425.98C271.233 425.537 272.463 425.329 273.698 425.367C274.258 425.331 274.82 425.414 275.346 425.612C275.871 425.81 276.349 426.118 276.745 426.515C277.057 426.954 277.244 427.469 277.287 428.006C277.33 428.542 277.227 429.08 276.989 429.563C276.511 430.522 275.785 431.336 274.886 431.92C271.92 434.064 268.659 435.587 265.093 434.765" fill="#58F9C8"/>
<path d="M261.415 448.042C261.416 447.75 261.439 447.458 261.486 447.169C261.557 446.549 261.649 445.746 261.761 444.791C261.993 442.144 262.648 439.551 263.701 437.111C264.807 434.669 266.542 432.565 268.73 431.016C269.395 430.564 270.111 430.193 270.863 429.908C271.065 429.826 271.272 429.758 271.483 429.705L271.706 429.654C270.707 430.074 269.75 430.591 268.852 431.199C266.749 432.77 265.075 434.845 263.985 437.233C262.935 439.644 262.25 442.198 261.954 444.812C261.801 445.828 261.679 446.62 261.578 447.179C261.554 447.472 261.499 447.761 261.415 448.042Z" fill="#263238"/>
<path d="M259.15 411.165C259.189 411.286 259.213 411.413 259.221 411.54L259.353 412.627C259.475 413.582 259.617 414.944 259.78 416.64C260.115 420.033 260.501 424.717 260.795 429.898C261.09 435.079 261.293 439.783 261.375 443.186C261.375 444.893 261.435 446.234 261.435 447.25V448.347C261.435 448.601 261.435 448.733 261.435 448.733C261.425 448.605 261.425 448.476 261.435 448.347L261.385 447.25C261.385 446.234 261.293 444.903 261.222 443.186C261.08 439.783 260.877 435.059 260.562 429.908C260.247 424.757 259.891 420.044 259.617 416.65C259.475 414.984 259.373 413.603 259.292 412.638C259.292 412.191 259.231 411.825 259.211 411.54C259.182 411.417 259.161 411.291 259.15 411.165Z" fill="#263238"/>
<path d="M259.14 437.741C258.544 435.202 257.351 432.841 255.66 430.855C253.969 428.869 251.829 427.315 249.417 426.322C248.188 425.824 246.603 425.55 245.679 426.505C244.754 427.46 245.079 429.035 245.679 430.233C246.893 432.724 248.817 434.8 251.209 436.199C253.601 437.598 256.353 438.258 259.119 438.097" fill="#58F9C8"/>
<path d="M250.25 430.294C250.52 430.362 250.782 430.458 251.033 430.579C251.276 430.68 251.581 430.802 251.916 430.975C252.252 431.148 252.648 431.331 253.054 431.595C253.504 431.853 253.939 432.138 254.355 432.448C254.842 432.795 255.31 433.168 255.757 433.566C256.78 434.475 257.697 435.497 258.489 436.613C259.267 437.75 259.908 438.974 260.399 440.261C260.607 440.819 260.783 441.389 260.928 441.967C261.059 442.473 261.164 442.985 261.242 443.501C261.315 443.925 261.363 444.352 261.385 444.781C261.411 445.12 261.411 445.459 261.385 445.797C261.411 446.071 261.411 446.347 261.385 446.62C261.314 446.62 261.385 445.442 261.029 443.572C260.941 443.065 260.826 442.563 260.684 442.069C260.528 441.5 260.342 440.941 260.125 440.393C259.63 439.134 258.996 437.935 258.235 436.817C257.457 435.71 256.565 434.689 255.574 433.769C255.137 433.368 254.679 432.992 254.202 432.641C253.776 432.296 253.329 432.032 252.932 431.768C251.327 430.782 250.23 430.355 250.25 430.294Z" fill="#263238"/>
<path d="M81.1514 392.766L52.5737 416.203L81.5578 451.892C84.7985 448.916 76.6509 424.889 76.6509 424.889L95.5774 410.667L81.1514 392.766Z" fill="#455A64"/>
<g opacity="0.6">
<path opacity="0.6" d="M69.2346 412.607C68.8523 412.349 68.3885 412.24 67.9314 412.302C67.4743 412.364 67.0559 412.592 66.7558 412.942C66.4823 413.316 66.3625 413.78 66.4211 414.239C66.4797 414.698 66.7122 415.118 67.0707 415.411C67.4814 415.674 67.9732 415.782 68.4563 415.713C68.9395 415.644 69.3817 415.403 69.702 415.035C69.9454 414.615 70.0168 414.117 69.9013 413.645C69.7858 413.174 69.4923 412.765 69.0823 412.505" fill="white"/>
</g>
<g opacity="0.6">
<path opacity="0.6" d="M52.6854 416.102L55.5604 413.725L82.0961 449.119C82.0961 449.119 82.6854 451.273 81.4155 451.994L52.6854 416.102Z" fill="white"/>
</g>
<path d="M77.301 425.326C77.1283 425.469 76.2851 424.656 75.0761 424.26C73.8672 423.864 72.7192 423.996 72.6583 423.772C72.5973 423.549 73.8164 423 75.3301 423.518C76.8438 424.036 77.494 425.235 77.301 425.326Z" fill="#263238"/>
<path d="M78.7944 430.335C78.6623 430.507 77.7785 429.999 76.5289 429.999C75.2793 429.999 74.3955 430.467 74.2634 430.294C74.1313 430.121 75.0253 429.197 76.539 429.217C78.0528 429.237 78.9569 430.192 78.7944 430.335Z" fill="#263238"/>
<path d="M76.0007 436.095C75.828 435.973 76.5086 435.018 77.8293 434.693C79.15 434.368 80.1862 434.876 80.0948 435.059C80.0034 435.242 79.0789 435.16 78.063 435.445C77.0471 435.729 76.1937 436.258 76.0007 436.095Z" fill="#263238"/>
<path d="M81.2529 421.598C81.0395 421.659 80.6332 420.663 79.7595 419.729C78.8858 418.794 77.9613 418.286 78.0324 418.073C78.1035 417.859 79.3328 418.073 80.3385 419.2C81.3443 420.328 81.4662 421.578 81.2529 421.598Z" fill="#263238"/>
<path d="M84.7985 417.351C84.7274 417.412 84.067 416.813 83.3559 415.553C82.9493 414.814 82.6321 414.03 82.4111 413.216C82.2813 412.736 82.1862 412.247 82.1266 411.753C82.0796 411.461 82.0796 411.162 82.1266 410.87C82.1635 410.657 82.267 410.462 82.4223 410.312C82.5775 410.162 82.7764 410.066 82.9902 410.037C83.182 410.023 83.3743 410.056 83.551 410.132C83.7277 410.208 83.8837 410.325 84.0061 410.473C84.1919 410.702 84.3457 410.955 84.4632 411.225C84.6788 411.683 84.8522 412.159 84.9813 412.647C85.2009 413.468 85.2866 414.319 85.2353 415.167C85.2755 415.956 85.0658 416.739 84.6359 417.402C84.5242 417.402 84.7375 416.528 84.6359 415.167C84.6041 414.378 84.471 413.596 84.2397 412.84C84.1004 412.401 83.9272 411.973 83.7216 411.56C83.5184 411.103 83.2543 410.778 83.0105 410.819C82.7667 410.859 82.8886 410.819 82.8378 411.022C82.8084 411.234 82.8084 411.45 82.8378 411.662C82.8884 412.126 82.963 412.587 83.0613 413.044C83.2379 413.82 83.4862 414.579 83.8029 415.309C84.1865 415.963 84.5194 416.646 84.7985 417.351Z" fill="#263238"/>
<path d="M84.3718 417.29C84.2905 417.29 84.6359 416.396 85.7128 415.411C86.3505 414.846 87.0785 414.393 87.8665 414.07C88.3358 413.881 88.8224 413.738 89.3193 413.643C89.6334 413.549 89.9664 413.537 90.2865 413.608C90.6066 413.679 90.9032 413.831 91.1479 414.05C91.2744 414.212 91.352 414.407 91.3718 414.612C91.3916 414.817 91.3527 415.024 91.2597 415.208C91.1229 415.466 90.9521 415.706 90.7517 415.919C90.4072 416.318 90.0028 416.66 89.5529 416.935C88.8037 417.382 87.9557 417.636 87.0843 417.676C85.5909 417.727 84.7883 417.168 84.8391 417.107C85.57 417.146 86.3025 417.146 87.0335 417.107C87.8051 417.009 88.5464 416.745 89.2075 416.335C89.5899 416.099 89.9327 415.804 90.2234 415.462C90.5587 415.096 90.7517 414.71 90.5993 414.598C90.4379 414.496 90.2564 414.43 90.0672 414.403C89.878 414.377 89.6853 414.392 89.5021 414.446C89.0502 414.526 88.6052 414.641 88.1713 414.791C87.4459 415.064 86.762 415.437 86.1395 415.899C84.9712 416.65 84.4734 417.351 84.3718 417.29Z" fill="#263238"/>
<path d="M68.2086 411.906L68.5541 448.845L114.534 448.652C114.25 444.263 90.4166 435.536 90.4166 435.536L91.1683 411.855L68.2086 411.906Z" fill="#455A64"/>
<g opacity="0.6">
<path opacity="0.6" d="M76.1937 433.606C75.751 433.743 75.3744 434.038 75.1362 434.436C74.8981 434.833 74.8152 435.305 74.9035 435.76C75.0256 436.205 75.3136 436.587 75.7085 436.827C76.1033 437.067 76.575 437.147 77.0267 437.05C77.4867 436.895 77.8758 436.58 78.1236 436.162C78.3715 435.745 78.4617 435.252 78.3779 434.774C78.2041 434.321 77.8616 433.953 77.4223 433.746C76.983 433.54 76.4808 433.511 76.021 433.667" fill="white"/>
</g>
<g opacity="0.6">
<path opacity="0.6" d="M68.5439 448.723V444.984L112.767 446.488C112.767 446.488 114.799 447.382 114.575 448.825L68.5439 448.723Z" fill="white"/>
</g>
<path d="M91.1683 435.323C91.1683 435.547 90.0406 435.658 88.9333 436.339C87.8259 437.02 87.2469 438.015 87.0437 437.924C86.8405 437.832 87.1656 436.542 88.5167 435.679C89.8679 434.815 91.2394 435.12 91.1683 435.323Z" fill="#263238"/>
<path d="M95.9938 437.294C95.9938 437.517 95.0795 437.903 94.3176 438.858C93.5556 439.813 93.3017 440.809 93.1188 440.809C92.9359 440.809 92.7531 439.529 93.7182 438.36C94.6833 437.192 95.9938 437.08 95.9938 437.294Z" fill="#263238"/>
<path d="M98.7572 443.064C98.554 443.064 98.2391 441.987 98.7572 440.758C99.2753 439.529 100.383 439.031 100.474 439.214C100.566 439.397 99.9255 440.067 99.4582 441.083C98.9909 442.099 98.9807 443.034 98.7572 443.064Z" fill="#263238"/>
<path d="M90.7416 429.908C90.64 430.111 89.6139 429.807 88.344 429.908C87.0741 430.01 86.0887 430.406 85.9668 430.213C85.8449 430.02 86.7998 429.197 88.2932 429.126C89.7866 429.055 90.8432 429.725 90.7416 429.908Z" fill="#263238"/>
<path d="M89.6139 424.463C88.8626 424.67 88.0693 424.67 87.3179 424.463C85.9934 424.228 84.725 423.746 83.5794 423.041C83.3208 422.896 83.0846 422.715 82.8784 422.502C82.736 422.339 82.6493 422.135 82.6311 421.919C82.6128 421.704 82.6639 421.488 82.7768 421.303C82.8911 421.141 83.0434 421.009 83.2204 420.918C83.3975 420.828 83.594 420.782 83.7927 420.785C84.0849 420.784 84.3757 420.825 84.6562 420.907C85.9857 421.214 87.2137 421.858 88.2221 422.776C89.2888 423.792 89.6647 424.595 89.5834 424.636C89.5022 424.676 88.9637 424.016 87.8665 423.203C87.2433 422.732 86.56 422.346 85.8347 422.055C85.403 421.884 84.9578 421.748 84.5039 421.649C84.0162 421.527 83.6099 421.527 83.4879 421.74C83.366 421.954 83.4879 421.852 83.5489 421.994C83.6961 422.152 83.8675 422.286 84.0569 422.39C84.4511 422.641 84.858 422.872 85.276 423.081C85.9928 423.432 86.7411 423.714 87.511 423.924C88.223 424.058 88.9255 424.238 89.6139 424.463Z" fill="#263238"/>
<path d="M89.3294 424.777C89.2481 424.777 88.8011 424.016 88.7097 422.553C88.6668 421.702 88.7698 420.849 89.0144 420.033C89.161 419.548 89.355 419.078 89.5935 418.631C89.7157 418.327 89.9147 418.059 90.1711 417.854C90.4274 417.65 90.7325 417.515 91.0564 417.463C91.2702 417.457 91.4809 417.514 91.6619 417.628C91.8428 417.742 91.9857 417.907 92.0723 418.103C92.1888 418.373 92.2708 418.656 92.3162 418.946C92.4162 419.636 92.378 420.339 92.2035 421.014C92.0291 421.689 91.722 422.323 91.3003 422.878C90.4062 424.076 89.4716 424.351 89.4513 424.27C89.431 424.188 90.1523 423.721 90.8329 422.573C91.2324 421.915 91.4789 421.175 91.5542 420.409C91.6199 419.968 91.6199 419.519 91.5542 419.078C91.473 418.591 91.2901 418.194 91.1072 418.245C90.9244 418.296 90.4875 418.611 90.3047 419.007C90.0798 419.407 89.8894 419.825 89.7357 420.257C89.4827 420.998 89.3356 421.771 89.2989 422.553C89.2075 423.904 89.4513 424.747 89.3294 424.777Z" fill="#263238"/>
<path d="M72.1503 197.822C72.1503 197.822 65.6993 204.72 62.5398 211.334C59.3803 217.948 57.3484 233.684 57.3484 233.684C57.3484 233.684 48.449 253.505 49.8002 263.643C51.1513 273.782 60.2133 343.19 60.2133 343.19C60.2133 343.19 59.7663 410.606 66.1869 422.624L67.6193 429.116L93.5455 424.463L93.383 420.572L99.4784 288.381L115.083 198.381L72.1503 197.822Z" fill="#263238"/>
<path d="M129.357 217.48C129.357 217.48 144.849 302.817 146.221 317.619C147.592 332.421 94.8256 410.525 94.8256 410.525L70.7077 385.401L105.33 321.043L94.0738 256.176L109.729 198.869L126.167 199.448L129.357 217.48Z" fill="#263238"/>
<path d="M62.1639 401.625C62.1902 402.258 62.2513 402.888 62.3468 403.514C62.5094 404.754 62.8141 406.562 63.2408 408.919C64.1043 413.613 65.5063 420.419 67.3857 428.923V429.105H67.5686L93.5049 424.554H93.698V424.351C94.4193 406.562 95.2828 385.299 96.2073 362.492C97.1622 337.957 98.0461 315.201 98.7775 296.539C100.718 281.544 102.323 269.109 103.451 260.463C103.989 256.156 104.416 252.773 104.71 250.436C104.843 249.298 104.954 248.404 105.025 247.805C105.097 247.206 105.107 246.901 105.107 246.901C105.107 246.901 105.046 247.195 104.954 247.795C104.863 248.394 104.731 249.288 104.568 250.416C104.243 252.742 103.776 256.125 103.176 260.423C102.039 269.028 100.383 281.452 98.3509 296.457C97.5991 315.12 96.6746 337.876 95.679 362.41C94.785 385.218 93.9519 406.481 93.2611 424.27L93.4643 424.036L67.5585 428.699L67.7718 428.841C65.8416 420.348 64.3888 413.552 63.4643 408.878C63.0072 406.532 62.6719 404.723 62.4484 403.494C62.3367 402.885 62.2757 402.417 62.2351 402.102C62.2196 401.942 62.1959 401.783 62.1639 401.625Z" fill="#455A64"/>
<path d="M32.0623 162.509C32.0623 162.509 48.1138 127.907 51.9031 126.068C55.6925 124.229 66.5831 123.609 68.0562 125.682L39.2855 167.111L32.0623 162.509Z" fill="#455A64"/>
<path d="M32.8954 157.835C32.1864 157.443 31.355 157.334 30.5689 157.531C25.5808 158.77 7.35526 163.626 5.32342 168.838C2.9665 174.842 17.3823 252.864 19.2415 254.977C21.1006 257.09 49.7697 253.545 50.6536 250.213C51.5374 246.88 41.3275 162.783 41.3275 162.783L32.8954 157.835Z" fill="#455A64"/>
<path d="M10.2709 210.978C10.2709 210.978 8.64547 211.08 7.03016 214.666C5.41486 218.252 8.25942 247.368 10.403 250.345C12.5466 253.321 18.8046 253.951 18.8046 253.951L10.2709 210.978Z" fill="#455A64"/>
<path d="M42.2214 251.808C42.1636 251.752 42.1155 251.686 42.0792 251.615L41.6932 251.015C41.3579 250.487 40.9109 249.684 40.3826 248.618C38.9291 245.594 37.8281 242.414 37.1012 239.139C36.046 234.29 35.286 229.381 34.8256 224.439C34.2364 218.872 33.5862 212.756 32.8953 206.335C31.5137 193.494 30.3657 181.852 30.1727 173.369C30.0711 169.132 30.1727 165.709 30.2844 163.342C30.3454 162.163 30.4165 161.239 30.4775 160.619C30.4775 160.335 30.5283 160.111 30.5486 159.918C30.5379 159.837 30.5379 159.755 30.5486 159.674C30.5598 159.755 30.5598 159.837 30.5486 159.918C30.5486 160.111 30.5486 160.345 30.5486 160.629C30.5486 161.29 30.5486 162.204 30.4571 163.352C30.3962 165.709 30.3657 169.132 30.5181 173.359C30.8026 181.811 32.0115 193.443 33.3931 206.285C34.0636 212.695 34.7037 218.811 35.2827 224.378C35.7161 229.309 36.4352 234.21 37.4365 239.058C38.1259 242.32 39.1647 245.497 40.535 248.536C41.0328 249.603 41.4494 250.416 41.7541 250.964L42.0894 251.584C42.191 251.757 42.2316 251.757 42.2214 251.808Z" fill="#263238"/>
<path d="M33.0782 205.533C31.9562 205.808 30.8201 206.021 29.6749 206.173C27.5821 206.528 24.6868 207.087 21.5476 207.869C18.4084 208.652 15.574 209.505 13.5523 210.165C12.4729 210.569 11.3704 210.908 10.2506 211.181C10.5015 210.998 10.7791 210.854 11.0735 210.754C11.6221 210.511 12.4247 210.186 13.4304 209.81C18.6795 207.851 24.1318 206.488 29.6851 205.746C30.701 205.614 31.6052 205.522 32.2045 205.492C32.4962 205.463 32.7905 205.477 33.0782 205.533Z" fill="#263238"/>
<path d="M9.89505 207.758C9.95971 207.91 10.0008 208.071 10.017 208.235C10.0881 208.611 10.1693 209.068 10.2709 209.617L11.1141 214.697C11.8354 218.994 12.8818 224.927 14.1619 231.449C15.4419 237.971 16.8033 243.853 17.7989 248.1C18.2865 250.132 18.6827 251.859 18.9875 253.129L19.2923 254.5C19.3386 254.659 19.3626 254.823 19.3634 254.988C19.2813 254.846 19.2229 254.691 19.1907 254.531L18.7843 253.179C18.4491 252.011 17.9817 250.304 17.4331 248.191C16.3461 243.965 14.9543 238.093 13.6438 231.561C12.3332 225.028 11.3478 219.075 10.7179 214.747C10.403 212.594 10.1693 210.836 10.0373 209.668C9.97632 209.109 9.92552 208.652 9.88489 208.266C9.86877 208.097 9.87219 207.926 9.89505 207.758Z" fill="#263238"/>
<path d="M30.2845 172.627C30.2407 171.902 30.2954 171.174 30.447 170.463C30.9617 167.012 31.8578 163.629 33.1189 160.375C33.3393 159.684 33.6501 159.024 34.0434 158.415C34.1856 158.476 33.0275 161.564 32.0116 165.526C30.9956 169.488 30.4674 172.648 30.2845 172.627Z" fill="#263238"/>
<path d="M131.002 98.5469C130.84 95.6109 130.474 81.2763 130.301 79.1429C130.119 76.1695 128.837 73.3703 126.705 71.2899C125.654 70.2596 124.323 69.5611 122.878 69.2811C121.433 69.0011 119.938 69.1521 118.578 69.7152C117.719 69.9323 116.933 70.3727 116.3 70.9919C115.666 71.6111 115.208 72.3868 114.971 73.2404C108.957 94.5747 109.892 117.402 107.25 139.509C115.103 140.789 125.669 140.271 133.603 139.854C133.583 122.197 132.089 117.656 131.002 98.5469Z" fill="#263238"/>
<path d="M127.701 128.689C127.654 128.503 127.634 128.312 127.64 128.12C127.64 127.694 127.589 127.104 127.558 126.485C127.558 124.991 127.447 122.939 127.375 120.45C127.264 115.289 127.121 108.259 126.959 100.548C126.898 96.6575 126.837 92.9595 126.786 89.5867C126.786 87.9003 126.786 86.3053 126.735 84.8017C126.753 83.4416 126.658 82.0824 126.451 80.7381C126.331 79.7573 125.995 78.8151 125.468 77.9791C124.941 77.1432 124.236 76.434 123.403 75.9023C122.775 75.5575 122.084 75.3433 121.371 75.2724C121.371 75.2724 121.371 75.2724 121.514 75.2724C121.655 75.2568 121.799 75.2568 121.94 75.2724C122.498 75.324 123.041 75.4863 123.535 75.7499C124.317 76.1653 124.992 76.7565 125.506 77.477C126.189 78.4335 126.651 79.5301 126.857 80.6873C127.096 82.0662 127.215 83.4632 127.213 84.8627C127.213 86.3662 127.274 87.9714 127.314 89.6476C127.375 93.0205 127.447 96.7591 127.528 100.609C127.629 108.351 127.721 115.36 127.792 120.511C127.792 123.01 127.792 125.052 127.792 126.546C127.792 127.216 127.792 127.755 127.792 128.191C127.775 128.36 127.745 128.526 127.701 128.689Z" fill="#455A64"/>
<path d="M120.559 120.582C120.49 120.159 120.46 119.731 120.467 119.302C120.467 118.469 120.417 117.27 120.417 115.787C120.417 112.821 120.477 108.676 120.589 104.195C120.701 99.7152 120.823 95.682 120.914 92.614C120.914 91.212 120.996 90.0335 121.026 89.1091C121.017 88.6762 121.054 88.2436 121.138 87.8188C121.206 88.2454 121.237 88.6771 121.229 89.1091C121.229 89.932 121.229 91.1409 121.229 92.6241C121.229 95.5906 121.168 99.7355 121.057 104.206C120.945 108.676 120.813 112.719 120.731 115.787C120.681 117.189 120.65 118.367 120.62 119.302C120.645 119.73 120.625 120.159 120.559 120.582Z" fill="#455A64"/>
<path d="M68.8283 126.068C67.8123 126.068 48.6522 127.429 44.2025 147.951C39.7528 168.472 38.4727 197.223 38.4727 197.223L59.2482 195.191L68.8283 126.068Z" fill="#58F9C8"/>
<path d="M78.2357 121.527L81.6085 115.299L111.07 114.497L113.102 119.8L130.464 126.068L129.011 202.993L141.873 274.016C141.873 274.016 141.741 284.266 107.494 287.517L104.782 250.396L87.6634 249.989L88.1307 286.247C88.1307 286.247 57.9174 285.76 48.3373 278.923C48.3373 278.923 45.4318 244.381 53.681 219.502C60.9042 197.72 63.7183 192.072 63.7183 192.072L64.3075 126.799L78.2357 121.527Z" fill="#58F9C8"/>
<g opacity="0.3">
<path opacity="0.3" d="M69.133 126.952C63.2136 152.289 57.2875 177.636 51.3545 202.993L57.3789 209.383C60.4657 207.943 63.0808 205.658 64.9204 202.791C66.76 199.925 67.7488 196.595 67.7717 193.189C67.7717 189.674 66.6542 186.251 66.512 182.736C66.1869 174.811 70.5756 167.548 72.6075 159.877C75.4012 149.017 73.3592 137.355 69.133 126.952Z" fill="black"/>
</g>
<path d="M126.705 125.083C133.816 126.393 139.292 133.911 140.928 141.977C141.873 146.701 144.626 169.478 144.626 169.478L146.139 177.829C146.139 177.829 147.409 206.528 141.324 209.739C134.213 213.477 130.149 209.373 127.792 206.366C125.435 203.359 122.926 183.792 122.926 183.792L125.577 136.959L126.705 125.083Z" fill="#58F9C8"/>
<path d="M130.068 136.603C130.066 136.879 130.038 137.155 129.986 137.426C129.905 138.002 129.793 138.784 129.651 139.773C129.326 141.805 128.879 144.781 128.32 148.378C127.762 151.974 127.04 156.352 126.288 161.148C125.892 163.545 125.486 166.065 125.059 168.675C124.632 171.286 124.104 173.979 123.881 176.803C123.744 178.398 123.744 180.002 123.881 181.598C126.085 191.462 128.148 200.169 129.702 206.407C130.484 209.454 131.114 211.974 131.571 213.752C131.785 214.575 131.957 215.225 132.089 215.723C132.168 215.949 132.219 216.185 132.242 216.424C132.137 216.209 132.055 215.984 131.998 215.753L131.388 213.802C130.88 212.096 130.169 209.607 129.356 206.498C127.711 200.281 125.587 191.574 123.373 181.72C123.236 180.097 123.236 178.466 123.373 176.843C123.596 174.019 124.125 171.317 124.561 168.716C124.998 166.115 125.425 163.637 125.821 161.188C126.634 156.403 127.365 152.045 127.975 148.438C128.584 144.832 129.113 141.937 129.478 139.854C129.661 138.889 129.804 138.107 129.915 137.528C129.932 137.215 129.983 136.905 130.068 136.603Z" fill="#263238"/>
<path d="M54.6664 130.863L60.0508 202.993C60.0508 202.993 70.1286 157.043 70.535 145.289C70.8437 138.548 70.1591 131.797 68.5032 125.255C68.5032 125.255 58.7301 123.681 54.6664 130.863Z" fill="#455A64"/>
<path d="M51.5577 126.292C52.223 126.497 52.8363 126.844 53.3559 127.307C53.9624 127.792 54.4172 128.441 54.6664 129.177C54.9528 130.046 55.1336 130.946 55.2049 131.859C55.3776 133.769 55.3674 135.496 55.3674 136.745C55.4111 137.424 55.3838 138.104 55.2862 138.777C55.0845 138.119 54.9852 137.434 54.9915 136.745C54.8899 135.506 54.8493 133.779 54.6766 131.899C54.5039 130.02 54.0772 128.333 53.1629 127.551C52.2486 126.769 51.5069 126.373 51.5577 126.292Z" fill="#263238"/>
<path d="M88.9231 128.902C88.9231 128.902 88.6895 128.709 88.3136 128.273C87.9377 127.836 87.4094 127.257 86.7491 126.393H87.0538C86.3224 128.516 85.2049 131.595 83.935 135.049L83.7521 135.536L83.4778 135.12C83.3254 134.886 83.1426 134.653 83.0003 134.409C82.1485 132.881 81.4443 131.275 80.8974 129.614C80.359 128.1 79.8815 126.739 79.5361 125.55C79.1907 124.361 78.8453 123.518 78.6116 122.858C78.4715 122.53 78.3627 122.19 78.2865 121.842C78.5068 122.121 78.6817 122.433 78.8046 122.766C79.0992 123.376 79.465 124.29 79.8916 125.418C80.3183 126.545 80.8161 127.927 81.3546 129.39C81.92 131.01 82.62 132.58 83.4474 134.084C83.5896 134.317 83.7521 134.531 83.8943 134.744L83.4372 134.815C84.7274 131.371 85.8957 128.313 86.7288 126.22L86.8405 125.926L87.0335 126.18C87.7252 127.043 88.3565 127.953 88.9231 128.902Z" fill="#263238"/>
<path d="M112.289 123.945C112.211 124.28 112.092 124.604 111.934 124.91C111.67 125.519 111.263 126.383 110.755 127.45C110.247 128.516 109.617 129.776 108.876 131.168C108.097 132.694 107.208 134.161 106.214 135.557L105.879 136.014L105.747 135.455L105.696 135.221C104.863 131.676 104.142 128.455 103.664 126.078L103.989 126.16C103.281 126.836 102.501 127.432 101.663 127.937C101.114 128.334 100.86 128.618 100.83 128.588C100.799 128.557 101.002 128.242 101.531 127.775C102.306 127.214 103.034 126.588 103.705 125.906L103.938 125.631L104.04 125.987C104.629 128.313 105.411 131.524 106.245 135.069V135.303L105.777 135.201C106.751 133.826 107.637 132.391 108.429 130.904L110.4 127.257L111.73 124.788C111.881 124.485 112.069 124.202 112.289 123.945Z" fill="#263238"/>
<path d="M89.4311 128.618C89.4311 128.618 86.5763 165.699 85.8347 170.474C85.0931 175.248 87.6329 249.989 87.6329 249.989L104.335 251.066C104.335 251.066 104.507 189.349 104.335 188.923C104.162 188.496 104.416 145.35 104.416 145.35L100.626 128.161L94.1652 135.81L89.4311 128.618Z" fill="white"/>
<path d="M108.073 163.87C108.073 163.951 107.484 164.083 107.189 164.886C107.104 165.101 107.066 165.333 107.078 165.564C107.09 165.796 107.152 166.022 107.26 166.227C107.415 166.453 107.635 166.626 107.891 166.724C108.147 166.822 108.427 166.84 108.693 166.775C108.964 166.745 109.22 166.63 109.423 166.448C109.627 166.266 109.769 166.026 109.831 165.76C109.86 165.529 109.839 165.296 109.769 165.075C109.699 164.854 109.581 164.65 109.424 164.48C109.101 164.154 108.687 163.934 108.236 163.85C108.236 163.85 108.368 163.748 108.642 163.748C109.025 163.789 109.382 163.957 109.658 164.226C109.88 164.428 110.051 164.679 110.159 164.96C110.267 165.24 110.307 165.542 110.278 165.841C110.195 166.208 110.007 166.543 109.736 166.804C109.464 167.065 109.122 167.241 108.752 167.309C108.382 167.377 108 167.335 107.653 167.188C107.307 167.041 107.011 166.795 106.803 166.481C106.667 166.212 106.596 165.914 106.596 165.612C106.596 165.31 106.667 165.013 106.803 164.744C106.97 164.385 107.258 164.098 107.616 163.931C107.911 163.819 108.063 163.839 108.073 163.87Z" fill="#263238"/>
<path d="M108.073 196.237C108.073 196.319 107.484 196.461 107.189 197.253C107.104 197.469 107.066 197.7 107.078 197.932C107.09 198.163 107.152 198.389 107.26 198.594C107.424 198.81 107.645 198.976 107.898 199.074C108.151 199.172 108.426 199.197 108.693 199.148C108.959 199.098 109.207 198.976 109.408 198.794C109.609 198.612 109.755 198.377 109.831 198.117C109.861 197.887 109.84 197.653 109.77 197.432C109.7 197.21 109.582 197.007 109.424 196.837C108.855 196.197 108.226 196.288 108.236 196.197C108.246 196.105 108.368 196.095 108.642 196.105C109.024 196.141 109.382 196.306 109.658 196.573C109.878 196.776 110.048 197.028 110.156 197.308C110.263 197.588 110.305 197.889 110.278 198.188C110.195 198.555 110.007 198.89 109.736 199.151C109.464 199.412 109.122 199.588 108.752 199.656C108.382 199.724 108 199.682 107.653 199.535C107.307 199.388 107.011 199.142 106.803 198.828C106.667 198.56 106.596 198.265 106.596 197.964C106.596 197.664 106.667 197.368 106.803 197.101C106.97 196.743 107.258 196.455 107.616 196.288C107.911 196.186 108.063 196.217 108.073 196.237Z" fill="#263238"/>
<path d="M109.526 235.391C109.526 235.472 108.937 235.614 108.642 236.407C108.556 236.622 108.518 236.853 108.531 237.085C108.543 237.316 108.605 237.542 108.713 237.748C108.877 237.963 109.098 238.13 109.351 238.227C109.604 238.325 109.879 238.351 110.145 238.301C110.412 238.252 110.66 238.129 110.861 237.947C111.062 237.765 111.208 237.53 111.283 237.27C111.314 237.04 111.293 236.806 111.223 236.585C111.152 236.364 111.034 236.161 110.877 235.99C110.308 235.35 109.678 235.441 109.688 235.35C109.699 235.259 109.82 235.248 110.095 235.259C110.478 235.291 110.837 235.456 111.111 235.726C111.334 235.927 111.508 236.178 111.617 236.459C111.727 236.739 111.769 237.041 111.741 237.341C111.66 237.711 111.472 238.049 111.2 238.312C110.928 238.576 110.584 238.753 110.211 238.821C109.839 238.89 109.455 238.846 109.107 238.697C108.759 238.547 108.463 238.298 108.256 237.981C108.122 237.713 108.052 237.417 108.052 237.118C108.052 236.818 108.122 236.522 108.256 236.254C108.423 235.896 108.71 235.608 109.069 235.441C109.394 235.34 109.526 235.37 109.526 235.391Z" fill="#263238"/>
<g opacity="0.3">
<path opacity="0.3" d="M131.205 163.576C130.84 160.619 130.058 157.724 129.864 154.747C129.621 151.192 130.24 147.636 129.539 144.09C127.122 148.154 126.573 153 126.563 157.704C126.553 162.407 126.989 167.131 126.319 171.784C125.862 174.974 124.826 178.804 124.439 182.004C124.053 185.204 124.968 186.962 125.902 191.767C129.123 182.675 132.384 173.156 131.205 163.576Z" fill="black"/>
</g>
<path d="M125.567 156.017C127.486 161.5 128.107 167.354 127.383 173.118C126.658 178.882 124.607 184.399 121.392 189.238" fill="#58F9C8"/>
<path d="M121.392 189.238C121.3 189.177 122.408 187.572 123.749 184.747C124.522 183.102 125.18 181.404 125.72 179.668C126.358 177.524 126.827 175.333 127.122 173.115C127.381 170.894 127.47 168.655 127.386 166.42C127.299 164.596 127.085 162.78 126.746 160.985C126.146 157.937 125.466 156.088 125.567 156.048C125.788 156.451 125.965 156.877 126.096 157.318C126.248 157.734 126.421 158.242 126.583 158.842C126.746 159.441 126.969 160.132 127.111 160.873C127.507 162.683 127.762 164.521 127.873 166.37C128.143 170.905 127.571 175.452 126.187 179.78C125.615 181.523 124.912 183.221 124.084 184.859C123.749 185.581 123.373 186.19 123.068 186.729C122.804 187.197 122.516 187.651 122.205 188.09C121.975 188.5 121.703 188.885 121.392 189.238Z" fill="#263238"/>
<path d="M75.1067 205.025C74.3934 204.583 73.7382 204.054 73.1561 203.45C70.1874 200.698 67.5825 197.577 65.4047 194.165C64.9079 193.482 64.5015 192.737 64.1957 191.95C64.7582 192.582 65.2647 193.262 65.7095 193.982C66.6136 195.232 67.8835 196.938 69.3871 198.747C70.8906 200.555 72.3434 202.099 73.4507 203.217C74.0523 203.772 74.6062 204.377 75.1067 205.025Z" fill="#263238"/>
<path d="M68.422 206.092C67.9924 205.508 67.6502 204.864 67.406 204.182C65.9759 200.983 64.952 197.618 64.3583 194.165C64.184 193.458 64.1121 192.729 64.145 192.001C64.2973 192.001 64.8866 195.221 66.0752 199.112C67.2638 203.003 68.5642 206.041 68.422 206.092Z" fill="#263238"/>
<path d="M101.094 186.739C101.094 186.81 100.474 186.414 99.4683 186.017C98.1555 185.505 96.7451 185.291 95.3394 185.391C93.9337 185.491 92.5679 185.903 91.341 186.596C90.4063 187.135 89.9085 187.612 89.8374 187.531C90.1659 187.014 90.6158 186.585 91.1479 186.282C92.3828 185.457 93.8117 184.971 95.2929 184.869C96.772 184.756 98.2548 185.036 99.5902 185.682C100.17 185.906 100.687 186.269 101.094 186.739Z" fill="#263238"/>
<path d="M44.6902 184.331C44.6902 184.331 37.2232 192.458 37.7921 198.127C38.361 203.796 41.0024 216.271 47.9512 215.895C54.9001 215.519 61.2699 204.273 62.1741 195.353C63.0782 186.434 62.1741 165.445 62.1741 165.445L52.2079 167.69L44.6902 184.331Z" fill="#FFBE9D"/>
<path d="M29.8577 132.316C35.0186 138.909 47.809 154.808 47.809 154.808L59.8476 151.76C60.2775 151.653 60.6649 151.418 60.9587 151.086C61.2525 150.754 61.4389 150.341 61.4933 149.901C61.5288 149.614 61.5067 149.322 61.4282 149.043C61.3497 148.764 61.2164 148.503 61.0362 148.276L44.1618 126.942C43.5322 126.141 42.664 125.562 41.6831 125.288C40.7023 125.014 39.6597 125.06 38.7064 125.418L30.9956 128.313C30.6172 128.456 30.2775 128.686 30.0038 128.984C29.7301 129.281 29.53 129.639 29.4194 130.028C29.3088 130.417 29.2908 130.827 29.3669 131.224C29.443 131.621 29.6111 131.995 29.8577 132.316Z" fill="#263238"/>
<path d="M60.2133 149.058C59.7984 148.72 59.4111 148.35 59.0551 147.951C58.3338 147.199 57.3078 146.112 56.0785 144.741C53.62 141.987 50.3284 138.076 46.9353 133.565C46.0921 132.438 45.2793 131.33 44.5072 130.243C43.8688 129.18 43.0097 128.265 41.9878 127.561C41.4913 127.331 40.9504 127.211 40.4029 127.211C39.8554 127.211 39.3146 127.331 38.8181 127.561L35.9735 128.577L31.8184 129.949C31.3185 130.142 30.8015 130.288 30.2743 130.386C30.7488 130.139 31.2412 129.929 31.7473 129.756L35.811 128.222L38.6454 127.206C39.1891 127.003 39.7553 126.866 40.3318 126.799C40.9758 126.746 41.6214 126.88 42.191 127.186C43.2905 127.909 44.2167 128.867 44.9034 129.989L47.3315 133.301C50.7043 137.802 53.9349 141.733 56.3223 144.537C57.4703 145.889 58.4354 147.006 59.1669 147.859C59.5472 148.23 59.8971 148.631 60.2133 149.058Z" fill="#455A64"/>
<path d="M36.6948 130.101C36.8755 130.012 37.0785 129.979 37.2781 130.006C37.4777 130.032 37.6648 130.118 37.8157 130.251C37.9667 130.384 38.0746 130.559 38.1259 130.754C38.1771 130.949 38.1693 131.154 38.1035 131.345C38.0377 131.535 37.9168 131.701 37.7562 131.823C37.5956 131.944 37.4026 132.015 37.2015 132.027C37.0005 132.038 36.8006 131.99 36.6272 131.887C36.4538 131.785 36.3147 131.634 36.2275 131.452C36.1117 131.211 36.0958 130.933 36.1833 130.68C36.2708 130.427 36.4546 130.219 36.6948 130.101Z" fill="white"/>
<path d="M47.0166 144.517L41.4494 145.442L39.4176 147.27C39.1304 147.518 38.9094 147.834 38.7746 148.189C38.6398 148.543 38.5954 148.926 38.6455 149.302C38.8037 150.303 39.2403 151.24 39.9052 152.004C40.6224 152.895 41.433 153.705 42.3231 154.422C42.3231 154.422 40.3726 157.592 43.4 159.197C43.4 159.197 43.1968 162.479 46.3766 162.814C46.3766 162.814 47.3011 165.933 49.6987 166.105L52.1673 168.554L51.4156 170.047L62.4586 170.393C62.5145 167.447 62.3686 164.5 62.0217 161.574C61.8342 160.384 61.5453 159.211 61.1582 158.069C61.7169 154.961 59.3905 153.66 59.0349 153.884C59.0349 153.884 64.3075 152.502 63.637 148.875L58.5574 150.176L49.2821 152.106L55.2354 148.134C55.5305 147.863 55.7899 147.556 56.0075 147.22C56.5155 146.417 57.2672 144.964 56.6272 144.111C56.3529 143.755 49.0383 146.813 49.0383 146.813L44.5073 150.989L43.0851 148.957C43.0851 148.957 47.7481 148.002 47.0166 144.517Z" fill="#FFBE9D"/>
<path d="M59.746 153.925C59.746 154.087 57.7853 154.361 55.4385 155.052C53.0918 155.743 51.2631 156.546 51.192 156.403C52.411 155.522 53.792 154.891 55.2557 154.544C56.6958 154.039 58.2228 153.828 59.746 153.925Z" fill="#EB996E"/>
<path d="M57.1961 163.484C57.86 162.88 58.4749 162.224 59.0349 161.523L59.2279 161.269L59.36 161.564C59.5426 161.952 59.8657 162.257 60.2642 162.417C60.4736 162.522 60.7069 162.57 60.9405 162.555C61.1742 162.541 61.3999 162.465 61.595 162.336C61.6794 162.271 61.742 162.181 61.7746 162.08C61.8073 161.978 61.8084 161.869 61.7779 161.767L61.6255 160.853C61.5492 160.217 61.4236 159.589 61.2496 158.973C61.1663 158.712 61.0005 158.484 60.777 158.325C60.5536 158.166 60.2846 158.083 60.0102 158.089C59.436 158.114 58.8683 158.22 58.3238 158.404L55.3471 159.136C54.4413 159.401 53.5129 159.581 52.5737 159.674C53.4395 159.295 54.337 158.992 55.2557 158.77L58.1816 157.937C58.7746 157.718 59.3987 157.595 60.0305 157.571C60.392 157.579 60.744 157.688 61.0464 157.886C61.3535 158.116 61.5866 158.43 61.7169 158.79C61.9006 159.439 62.0331 160.102 62.1131 160.771C62.1131 161.086 62.2046 161.401 62.2554 161.706C62.2927 161.896 62.2753 162.092 62.2051 162.272C62.135 162.452 62.0149 162.608 61.8592 162.722C61.5941 162.898 61.2867 163.001 60.9688 163.019C60.6509 163.037 60.334 162.969 60.0508 162.824C59.5861 162.589 59.2243 162.191 59.0349 161.706H59.3499C58.9247 162.239 58.4252 162.707 57.8666 163.098C57.4501 163.372 57.2164 163.514 57.1961 163.484Z" fill="#EB996E"/>
<path d="M47.4331 148.134C46.6981 149.281 45.8689 150.365 44.9543 151.375C44.1828 152.497 43.3161 153.55 42.3637 154.524C42.8799 153.261 43.6045 152.093 44.5073 151.07C45.3014 149.926 46.292 148.932 47.4331 148.134Z" fill="#EB996E"/>
<path d="M49.729 151.964C49.729 152.116 48.5709 152.482 47.6972 153.67C47.2404 154.425 46.898 155.243 46.6813 156.098C46.6102 156.098 46.5086 155.794 46.5289 155.265C46.5915 154.577 46.8387 153.918 47.2446 153.358C47.6505 152.799 48.2 152.359 48.835 152.086C49.3836 151.903 49.7087 151.903 49.729 151.964Z" fill="#EB996E"/>
<path d="M109.323 70.1215C108.469 67.8865 108.805 65.3975 108.469 63.0101C107.738 57.7985 103.542 53.6129 98.6861 51.5709C94.1652 49.6813 88.6488 50.0877 83.2035 51.8351C79.4211 52.9774 76.0419 55.1726 73.4609 58.1642C71.816 60.1932 70.681 62.5865 70.1508 65.144C69.6205 67.7016 69.7105 70.3489 70.4131 72.8645L97.0911 69.0142C99.5801 71.046 102.171 73.1896 105.168 74.3478C106.041 74.7367 107 74.8908 107.951 74.7948C108.416 74.7309 108.854 74.5367 109.214 74.2347C109.573 73.9327 109.84 73.5352 109.983 73.088C110.288 72.0823 109.699 71.0968 109.323 70.1215Z" fill="#263238"/>
<path d="M92.7429 50.2401C98.5844 49.2242 103.715 51.51 108.632 54.8117C113.542 58.2046 117.296 63.0188 119.39 68.6078C121.636 74.429 122.204 82.8307 120.406 88.8347C119.631 91.6537 118.186 94.2436 116.194 96.3839C114.203 98.5243 111.723 100.152 108.967 101.127C100.941 103.972 91.6965 103.616 84.8696 98.4758C78.0426 93.3352 74.2025 84.832 73.8875 76.3186C73.588 70.4093 75.1554 64.5555 78.3677 59.5865C79.9864 57.1293 82.0935 55.0314 84.5578 53.4235C87.0222 51.8156 89.791 50.732 92.6921 50.2401" fill="#263238"/>
<path d="M83.4676 113.765L83.681 118.52L94.1652 137.06L109.404 117.555L109.922 68.7906C109.901 67.7009 109.472 66.6587 108.72 65.8703C107.967 65.082 106.946 64.605 105.858 64.5339L82.5838 59.5661C75.1676 59.0683 70.596 68.3436 70.3928 75.8207C70.1896 84.0801 70.2506 94.1682 71.4087 100.274C73.8368 112.556 83.3661 113.775 83.3661 113.775" fill="#FFBE9D"/>
<path d="M73.786 86.0508C73.794 86.4649 73.9648 86.8592 74.2614 87.1482C74.5581 87.4373 74.9566 87.5978 75.3708 87.595C75.5735 87.6032 75.7757 87.5708 75.9657 87.4998C76.1556 87.4288 76.3295 87.3205 76.4771 87.1814C76.6247 87.0424 76.7431 86.8752 76.8252 86.6898C76.9074 86.5044 76.9517 86.3044 76.9556 86.1016C76.9399 85.691 76.7664 85.3023 76.4711 85.0165C76.1759 84.7307 75.7817 84.5699 75.3708 84.5676C75.1687 84.5581 74.9667 84.5891 74.7767 84.659C74.5868 84.7289 74.4128 84.8362 74.2651 84.9744C74.1173 85.1127 73.9988 85.2792 73.9165 85.4641C73.8342 85.649 73.7898 85.8485 73.786 86.0508Z" fill="#263238"/>
<path d="M72.831 80.5755C73.0341 80.7787 74.2024 79.844 75.8787 79.7831C77.555 79.7221 78.8655 80.5247 79.0382 80.3113C79.2109 80.098 78.9163 79.8542 78.3474 79.4783C77.5935 78.9897 76.7047 78.7515 75.8076 78.7976C74.9216 78.826 74.0677 79.1355 73.3694 79.6815C72.8919 80.0675 72.7294 80.484 72.831 80.5755Z" fill="#263238"/>
<path d="M89.2583 85.7564C89.269 86.1714 89.442 86.5657 89.7403 86.8544C90.0385 87.1432 90.4382 87.3034 90.8533 87.3006C91.0546 87.3088 91.2555 87.2766 91.4443 87.2061C91.633 87.1356 91.8058 87.0281 91.9524 86.89C92.0991 86.7518 92.2167 86.5858 92.2984 86.4016C92.38 86.2174 92.4241 86.0188 92.428 85.8174C92.42 85.4033 92.2492 85.009 91.9525 84.72C91.6559 84.4309 91.2573 84.2704 90.8432 84.2732C90.641 84.2636 90.439 84.2947 90.2491 84.3646C90.0592 84.4345 89.8852 84.5417 89.7374 84.68C89.5897 84.8183 89.4711 84.9848 89.3888 85.1697C89.3066 85.3546 89.2622 85.5541 89.2583 85.7564Z" fill="#263238"/>
<path d="M89.0247 80.179C89.2279 80.3822 90.3962 79.4475 92.0724 79.3866C93.7487 79.3256 95.1202 80.1384 95.2421 79.9149C95.364 79.6913 95.1202 79.4577 94.5513 79.0818C93.7974 78.5932 92.9086 78.355 92.0115 78.4011C91.1255 78.4295 90.2716 78.739 89.5733 79.285C89.0856 79.7117 88.9231 80.0672 89.0247 80.179Z" fill="#263238"/>
<path d="M83.8841 93.1424C82.9763 92.895 82.0412 92.7619 81.1005 92.7462C80.6636 92.7462 80.2471 92.6446 80.1658 92.35C80.1094 91.9017 80.1946 91.447 80.4097 91.0496L81.5678 87.6869C83.1831 82.902 84.3311 78.9704 84.1381 78.9094C83.9451 78.8485 82.4821 82.6683 80.8668 87.4634L79.7595 90.8464C79.5084 91.3827 79.4509 91.9894 79.5969 92.5633C79.6681 92.7132 79.7714 92.8456 79.8996 92.9509C80.0278 93.0563 80.1777 93.1321 80.3385 93.1729C80.5816 93.2285 80.8309 93.2524 81.0802 93.244C82.0152 93.3341 82.958 93.2999 83.8841 93.1424Z" fill="#263238"/>
<path d="M83.4676 113.765C89.3026 113.374 94.9419 111.503 99.8543 108.33C99.8543 108.33 96.0142 117.036 83.5997 116.346L83.4676 113.765Z" fill="#EB996E"/>
<path d="M85.1947 96.8097C85.5042 96.4695 85.8946 96.2129 86.3297 96.0637C86.7648 95.9146 87.2305 95.8776 87.6837 95.9563C88.0084 95.9868 88.321 96.0951 88.5951 96.2719C88.8692 96.4487 89.0967 96.6889 89.2583 96.9722C89.4928 97.3153 89.6307 97.7151 89.6575 98.1298C89.6843 98.5445 89.5991 98.9588 89.4107 99.3292C89.1511 99.6494 88.8002 99.8831 88.4047 99.9993C88.0091 100.115 87.5876 100.108 87.196 99.9794C86.4579 99.8109 85.7649 99.4852 85.1642 99.0244C84.9704 98.8371 84.8362 98.5968 84.7782 98.3336C84.7376 98.0624 84.7585 97.7855 84.8394 97.5235C84.9203 97.2615 85.0591 97.021 85.2455 96.8199" fill="#EB996E"/>
<path d="M89.1263 76.1866C89.3092 76.6438 91.0058 76.3593 93.0071 76.532C95.0085 76.7047 96.6644 77.1822 96.9082 76.7555C97.02 76.5524 96.7254 76.1257 96.0549 75.7396C95.1691 75.2097 94.1694 74.8996 93.1392 74.8355C92.0997 74.749 91.0547 74.9127 90.0914 75.3129C89.4006 75.5872 89.045 76.0038 89.1263 76.1866Z" fill="#263238"/>
<path d="M73.0443 73.098C73.3593 73.4739 74.5174 73.0269 75.9295 72.9558C77.3416 72.8847 78.5506 73.1183 78.8046 72.7018C78.9163 72.5088 78.7131 72.1227 78.1849 71.7773C77.4651 71.3636 76.6389 71.1728 75.8106 71.2288C74.9824 71.2849 74.1894 71.5854 73.532 72.0923C73.0545 72.5088 72.9529 72.9558 73.0443 73.098Z" fill="#263238"/>
<path d="M113.589 66.5352C111.182 59.4238 100.657 49.7624 93.1899 50.4227L81.3951 57.7983C81.8209 59.827 82.7867 61.703 84.1904 63.2283C85.5941 64.7536 87.3836 65.8716 89.3701 66.4641C91.4933 67.0634 94.0331 67.1955 95.3233 68.9835C96.6135 70.7715 95.943 73.5247 97.1723 75.4143C98.8689 78.0353 103.38 77.822 104.68 80.6665C105.239 81.906 104.985 83.3994 105.574 84.6388C106.356 86.2744 110.582 88.2961 112.309 87.6865C114.036 87.077 113.976 84.1511 114.514 82.6069C115.193 80.8501 115.247 78.9129 114.666 77.121C113.854 73.6567 114.748 69.908 113.589 66.5352Z" fill="#263238"/>
<path d="M107.23 89.2715C107.23 88.347 108.185 86.1424 109.089 85.9596C111.497 85.4923 115.875 85.5227 116.2 91.6893C116.576 100.111 108.073 98.7398 108.012 98.5061C107.951 98.2725 107.342 92.4513 107.23 89.2715Z" fill="#FFBE9D"/>
<path d="M110.4 95.1943C110.4 95.1943 110.552 95.2959 110.796 95.3975C110.971 95.4705 111.159 95.508 111.349 95.508C111.54 95.508 111.728 95.4705 111.903 95.3975C112.777 95.0318 113.457 93.5892 113.437 92.0755C113.43 91.3514 113.257 90.6387 112.929 89.9929C112.841 89.7327 112.691 89.4982 112.49 89.3103C112.29 89.1224 112.047 88.987 111.781 88.916C111.61 88.876 111.431 88.898 111.274 88.978C111.118 89.058 110.995 89.1908 110.928 89.3528C110.826 89.5967 110.928 89.7592 110.847 89.7694C110.765 89.7795 110.654 89.6373 110.715 89.2919C110.746 89.0782 110.855 88.8833 111.019 88.7433C111.244 88.5599 111.533 88.4724 111.822 88.4995C112.171 88.5507 112.501 88.6919 112.778 88.9092C113.056 89.1266 113.273 89.4125 113.407 89.7389C113.797 90.4535 114.009 91.2514 114.026 92.0653C114.026 93.7619 113.244 95.3874 111.995 95.7937C111.772 95.8694 111.534 95.8941 111.301 95.866C111.067 95.8378 110.842 95.7576 110.643 95.6312C110.42 95.3975 110.369 95.2147 110.4 95.1943Z" fill="#EB996E"/>
<path d="M121.229 77.751C121.484 76.9332 121.594 76.0771 121.554 75.2214C121.577 71.0564 120.203 67.004 117.653 63.7111C117.168 63.0083 116.567 62.3934 115.875 61.8926C115.713 61.9942 118.537 64.7981 120.02 69.3189C120.855 72.0506 121.263 74.8948 121.229 77.751Z" fill="#58F9C8"/>
<path d="M83.8537 55.2587C83.0715 58.6824 77.8598 63.0711 75.5638 65.743C71.1954 70.8226 70.3725 71.5743 70.403 86.9248C68.1427 82.1598 66.9467 76.9598 66.8981 71.6861C67.0004 67.2017 68.7383 62.9094 71.7846 59.617C73.3199 58.004 75.2102 56.7712 77.3052 56.0164C79.4003 55.2616 81.6425 55.0057 83.8537 55.2689" fill="#263238"/>
<path d="M117.887 66.4236C117.426 66.5916 116.95 66.7108 116.465 66.7791C115.997 66.8807 115.449 66.9925 114.758 67.0738C114.067 67.155 113.325 67.2973 112.472 67.3379C110.487 67.4832 108.494 67.4832 106.509 67.3379C104.072 67.1617 101.653 66.7914 99.2752 66.2305C96.905 65.6361 94.5877 64.8478 92.3467 63.8736C90.5218 63.0715 88.7594 62.1342 87.0741 61.0697C86.3325 60.643 85.7229 60.1757 85.1743 59.7896C84.6965 59.4752 84.2353 59.1361 83.7927 58.7737C83.3976 58.4645 83.0274 58.1248 82.6853 57.7578C83.1189 57.9909 83.5303 58.263 83.9146 58.5705C84.2905 58.855 84.7578 59.1902 85.3267 59.5865C85.8956 59.9827 86.5153 60.389 87.257 60.7954C88.9505 61.81 90.7122 62.7061 92.5295 63.4774C94.7446 64.4404 97.0303 65.2318 99.3667 65.8445C101.706 66.3976 104.083 66.7779 106.478 66.9823C108.446 67.1297 110.421 67.1467 112.391 67.0331C113.234 67.0331 113.996 66.901 114.656 66.8503C115.317 66.7995 115.896 66.708 116.363 66.6369C116.864 66.5248 117.374 66.4534 117.887 66.4236Z" fill="#455A64"/>
<path d="M118.76 72.4685C118.433 72.5897 118.092 72.6682 117.745 72.7022C116.848 72.8707 115.942 72.986 115.032 73.0476C108.975 73.4919 102.911 72.2951 97.4771 69.5833C96.6564 69.182 95.8593 68.7343 95.0897 68.2423C94.7931 68.0799 94.5197 67.8783 94.2769 67.6429C94.2769 67.5718 95.5468 68.3134 97.6294 69.2684C103.071 71.7696 109.028 72.943 115.012 72.692C117.338 72.6006 118.75 72.3771 118.76 72.4685Z" fill="#455A64"/>
<path d="M120.894 72.6714C121.039 73.0818 121.135 73.5081 121.178 73.9413C121.311 74.7743 121.443 75.9731 121.524 77.4665C121.615 79.2161 121.615 80.9692 121.524 82.7188C121.444 84.8684 121.155 87.0052 120.66 89.0987C119.669 92.946 117.356 96.3225 114.128 98.6382C113.148 99.3074 112.099 99.8694 110.999 100.314C110.608 100.504 110.195 100.643 109.77 100.731C110.135 100.5 110.519 100.299 110.918 100.132C111.967 99.6236 112.969 99.0253 113.915 98.3436C115.301 97.3186 116.509 96.0727 117.491 94.6558C118.727 92.9454 119.633 91.0195 120.163 88.9768C120.643 86.9107 120.942 84.8065 121.057 82.6883C121.178 80.7276 121.199 78.9599 121.168 77.4767C121.138 75.9934 121.067 74.7946 120.985 73.9718C120.916 73.5419 120.886 73.1067 120.894 72.6714Z" fill="#455A64"/>
<path d="M87.2977 99.9587C87.7538 99.9631 88.2039 99.8549 88.6082 99.6438C88.8061 99.5221 88.9756 99.3593 89.1053 99.1665C89.235 98.9738 89.3218 98.7554 89.36 98.5263C89.4055 98.2455 89.3891 97.9581 89.3119 97.6844C89.2347 97.4106 89.0985 97.157 88.913 96.9414C88.518 96.5179 87.977 96.2601 87.3992 96.2201C86.9128 96.191 86.4277 96.2964 85.9973 96.5249C85.2455 96.9211 84.9814 97.4088 84.8595 97.358C84.7376 97.3072 85.0118 96.7484 85.8043 96.1998C86.2811 95.88 86.8457 95.7167 87.4196 95.7325C87.7766 95.7406 88.1283 95.8214 88.4532 95.9699C88.7781 96.1183 89.0693 96.3314 89.3092 96.596C89.5489 96.8704 89.7215 97.1969 89.8132 97.5496C89.9049 97.9022 89.9132 98.2714 89.8374 98.6279C89.7817 98.9154 89.6613 99.1865 89.4853 99.4206C89.3093 99.6547 89.0823 99.8456 88.8215 99.979C87.8666 100.385 87.2469 99.9993 87.2977 99.9587Z" fill="#263238"/>
<path d="M139.262 169.326L143.793 159.664C144.545 156.617 147.613 155.601 151.371 155.357L155.344 153.731C155.344 153.731 158.239 149.556 160.921 149.668C161.131 149.675 161.334 149.747 161.502 149.875C161.669 150.002 161.793 150.178 161.856 150.379C161.901 150.516 161.914 150.661 161.895 150.803C161.876 150.946 161.824 151.082 161.744 151.202L158.483 156.22L155.882 157.5C155.882 157.5 158.32 158.09 159.285 157.186C160.251 156.281 163.512 153.701 163.512 153.701C163.512 153.701 166.001 149.221 169.231 149.556C169.328 149.565 169.421 149.597 169.502 149.651C169.584 149.704 169.65 149.777 169.697 149.862C169.743 149.948 169.767 150.044 169.768 150.141C169.768 150.238 169.744 150.334 169.699 150.42L167.22 155.205C167.22 155.205 171.741 148.408 176.048 150.948L171.273 156.139C171.273 156.139 178.202 152.208 180.965 155.499L163.43 162.743L153.322 164.724L149.787 174.314L146.678 172.516L139.262 169.326Z" fill="#FFBE9D"/>
<path d="M149.766 181.872C149.766 181.872 150.305 199.041 147.135 203.775C143.965 208.51 138.073 214.951 130.779 209.79L126.217 192.519C126.217 192.519 133.644 184.392 134.995 181.039C138.358 172.719 143.793 159.705 143.793 159.705L153.464 164.013L149.766 181.872Z" fill="#FFBE9D"/>
<path d="M136.092 179.464C135.793 180.221 135.426 180.949 134.995 181.638C134.284 182.949 133.329 184.778 132.384 186.85C131.439 188.923 130.677 190.843 130.139 192.245C129.904 193.021 129.594 193.773 129.214 194.49C129.309 193.68 129.504 192.885 129.793 192.123C130.373 190.25 131.076 188.417 131.896 186.637C132.713 184.851 133.639 183.117 134.67 181.445C135.062 180.73 135.54 180.065 136.092 179.464Z" fill="#EB996E"/>
<path d="M158.483 156.169C157.788 156.778 156.985 157.25 156.116 157.561C155.322 158.029 154.446 158.339 153.535 158.476C154.227 157.868 155.027 157.396 155.892 157.084C156.69 156.617 157.569 156.307 158.483 156.169Z" fill="#EB996E"/>
<path d="M159.936 160.711C159.936 160.64 160.393 160.335 161.216 159.979L162.679 159.38L163.522 159.024C163.803 158.918 164.052 158.739 164.243 158.506C165.127 157.49 165.848 156.474 166.427 155.794C167.006 155.113 167.443 154.686 167.494 154.778C167.436 154.897 167.372 155.012 167.301 155.123L166.732 156.017C166.095 157.011 165.393 157.962 164.629 158.862C164.506 159.003 164.37 159.132 164.223 159.248C164.07 159.35 163.907 159.435 163.735 159.502L162.851 159.837C162.293 160.04 161.774 160.193 161.348 160.335C160.894 160.517 160.42 160.643 159.936 160.711Z" fill="#EB996E"/>
</svg>
